CalSansUI-Light.ufo
<glyph name="exclam" format="2">
  <advance width="219"/>
  <unicode hex="0021"/>
  <outline>
    <contour>
      <point x="81" y="143" type="line"/>
      <point x="137" y="143" type="line"/>
      <point x="154" y="527" type="line"/>
      <point x="154" y="700" type="line"/>
      <point x="64" y="700" type="line"/>
      <point x="64" y="527" type="line"/>
    </contour>
    <component base="period"/>
  </outline>
</glyph>
<glyph name="hyphen" format="2">
  <advance width="390"/>
  <unicode hex="002D"/>
  <outline>
    <contour>
      <point x="52" y="237" type="line"/>
      <point x="338" y="237" type="line"/>
      <point x="338" y="315" type="line"/>
      <point x="52" y="315" type="line"/>
    </contour>
  </outline>
</glyph>
<glyph name="less" format="2">
  <advance width="596"/>
  <unicode hex="003C"/>
  <outline>
    <contour>
      <point x="383" y="70" type="line"/>
      <point x="490" y="70" type="line"/>
      <point x="230" y="312" type="line"/>
      <point x="230" y="317" type="line"/>
      <point x="490" y="550" type="line"/>
      <point x="383" y="550" type="line"/>
      <point x="120" y="310" type="line"/>
    </contour>
  </outline>
</glyph>
<glyph name="G" format="2">
  <advance width="732"/>
  <unicode hex="0047"/>
  <anchor x="396" y="0" name="bottom"/>
  <anchor x="523" y="9" name="ogonek"/>
  <anchor x="396" y="700" name="top"/>
  <outline>
    <contour>
      <point x="396" y="-13" type="curve" smooth="yes"/>
      <point x="508" y="-13"/>
      <point x="596" y="28"/>
      <point x="666" y="98" type="curve"/>
      <point x="666" y="367" type="line"/>
      <point x="363" y="367" type="line"/>
      <point x="363" y="293" type="line"/>
      <point x="623" y="294" type="line"/>
      <point x="586" y="318" type="line"/>
      <point x="586" y="82" type="line"/>
      <point x="609" y="151" type="line"/>
      <point x="548" y="93"/>
      <point x="489" y="63"/>
      <point x="397" y="63" type="curve" smooth="yes"/>
      <point x="239" y="63"/>
      <point x="128" y="187"/>
      <point x="128" y="349" type="curve" smooth="yes"/>
      <point x="128" y="511"/>
      <point x="230" y="637"/>
      <point x="397" y="637" type="curve" smooth="yes"/>
      <point x="473" y="637"/>
      <point x="541" y="615"/>
      <point x="592" y="551" type="curve"/>
      <point x="653" y="603" type="line"/>
      <point x="590" y="678"/>
      <point x="504" y="713"/>
      <point x="396" y="713" type="curve" smooth="yes"/>
      <point x="187" y="713"/>
      <point x="41" y="555"/>
      <point x="41" y="349" type="curve" smooth="yes"/>
      <point x="41" y="144"/>
      <point x="191" y="-13"/>
    </contour>
  </outline>
</glyph>
<glyph name="M" format="2">
  <advance width="923"/>
  <unicode hex="004D"/>
  <anchor x="461" y="0" name="bottom"/>
  <anchor x="758" y="0" name="ogonek"/>
  <anchor x="463" y="700" name="top"/>
  <outline>
    <contour>
      <point x="82" y="0" type="line"/>
      <point x="165" y="0" type="line"/>
      <point x="165" y="376" type="line" smooth="yes"/>
      <point x="165" y="485"/>
      <point x="162" y="549"/>
      <point x="156" y="592" type="curve"/>
      <point x="160" y="592" type="line"/>
      <point x="441" y="0" type="line"/>
      <point x="483" y="0" type="line"/>
      <point x="762" y="592" type="line"/>
      <point x="766" y="592" type="line"/>
      <point x="761" y="553"/>
      <point x="758" y="487"/>
      <point x="758" y="376" type="curve" smooth="yes"/>
      <point x="758" y="0" type="line"/>
      <point x="841" y="0" type="line"/>
      <point x="841" y="700" type="line"/>
      <point x="730" y="700" type="line"/>
      <point x="541" y="306" type="line" smooth="yes"/>
      <point x="497" y="214"/>
      <point x="474" y="158"/>
      <point x="466" y="125" type="curve"/>
      <point x="462" y="125" type="line"/>
      <point x="454" y="159"/>
      <point x="429" y="215"/>
      <point x="386" y="306" type="curve" smooth="yes"/>
      <point x="199" y="700" type="line"/>
      <point x="82" y="700" type="line"/>
    </contour>
  </outline>
</glyph>
<glyph name="S" format="2">
  <advance width="583"/>
  <unicode hex="0053"/>
  <anchor x="292" y="0" name="bottom"/>
  <anchor x="381" y="0" name="ogonek"/>
  <anchor x="307" y="700" name="top"/>
  <outline>
    <contour>
      <point x="293" y="-13" type="curve" smooth="yes"/>
      <point x="424" y="-13"/>
      <point x="524" y="63"/>
      <point x="524" y="189" type="curve" smooth="yes"/>
      <point x="524" y="432"/>
      <point x="169" y="364"/>
      <point x="169" y="530" type="curve" smooth="yes"/>
      <point x="169" y="592"/>
      <point x="217" y="638"/>
      <point x="304" y="638" type="curve" smooth="yes"/>
      <point x="364" y="638"/>
      <point x="414" y="607"/>
      <point x="450" y="549" type="curve"/>
      <point x="519" y="594" type="line"/>
      <point x="474" y="664"/>
      <point x="406" y="713"/>
      <point x="305" y="713" type="curve" smooth="yes"/>
      <point x="166" y="713"/>
      <point x="85" y="619"/>
      <point x="85" y="525" type="curve" smooth="yes"/>
      <point x="85" y="285"/>
      <point x="439" y="357"/>
      <point x="439" y="184" type="curve" smooth="yes"/>
      <point x="439" y="102"/>
      <point x="372" y="63"/>
      <point x="299" y="63" type="curve" smooth="yes"/>
      <point x="220" y="63"/>
      <point x="162" y="98"/>
      <point x="117" y="170" type="curve"/>
      <point x="47" y="122" type="line"/>
      <point x="101" y="37"/>
      <point x="188" y="-13"/>
    </contour>
  </outline>
</glyph>
<glyph name="U" format="2">
  <advance width="697"/>
  <unicode hex="0055"/>
  <anchor x="348" y="0" name="bottom"/>
  <anchor x="364" y="0" name="ogonek"/>
  <anchor x="348" y="684" name="top"/>
  <anchor x="348" y="647" name="top_ring"/>
  <anchor x="639" y="700" name="topright"/>
  <outline>
    <contour>
      <point x="348" y="-13" type="curve" smooth="yes"/>
      <point x="519" y="-13"/>
      <point x="625" y="100"/>
      <point x="625" y="266" type="curve" smooth="yes"/>
      <point x="625" y="700" type="line"/>
      <point x="541" y="700" type="line"/>
      <point x="541" y="264" type="line" smooth="yes"/>
      <point x="541" y="136"/>
      <point x="471" y="64"/>
      <point x="348" y="64" type="curve" smooth="yes"/>
      <point x="226" y="64"/>
      <point x="156" y="138"/>
      <point x="156" y="271" type="curve" smooth="yes"/>
      <point x="156" y="700" type="line"/>
      <point x="72" y="700" type="line"/>
      <point x="72" y="259" type="line" smooth="yes"/>
      <point x="72" y="100"/>
      <point x="177" y="-13"/>
    </contour>
  </outline>
</glyph>
<glyph name="W" format="2">
  <advance width="1034"/>
  <unicode hex="0057"/>
  <anchor x="517" y="0" name="bottom"/>
  <anchor x="517" y="700" name="top"/>
  <outline>
    <contour>
      <point x="248" y="0" type="line"/>
      <point x="330" y="0" type="line"/>
      <point x="488" y="488" type="line" smooth="yes"/>
      <point x="506" y="541"/>
      <point x="510" y="564"/>
      <point x="515" y="591" type="curve"/>
      <point x="519" y="591" type="line"/>
      <point x="524" y="564"/>
      <point x="527" y="542"/>
      <point x="545" y="488" type="curve" smooth="yes"/>
      <point x="701" y="0" type="line"/>
      <point x="783" y="0" type="line"/>
      <point x="1009" y="700" type="line"/>
      <point x="919" y="700" type="line"/>
      <point x="769" y="213" type="line" smooth="yes"/>
      <point x="752" y="160"/>
      <point x="749" y="135"/>
      <point x="744" y="109" type="curve"/>
      <point x="740" y="109" type="line"/>
      <point x="735" y="135"/>
      <point x="732" y="159"/>
      <point x="714" y="213" type="curve" smooth="yes"/>
      <point x="563" y="700" type="line"/>
      <point x="478" y="700" type="line"/>
      <point x="320" y="213" type="line" smooth="yes"/>
      <point x="302" y="160"/>
      <point x="299" y="135"/>
      <point x="294" y="109" type="curve"/>
      <point x="290" y="109" type="line"/>
      <point x="285" y="135"/>
      <point x="281" y="159"/>
      <point x="264" y="213" type="curve" smooth="yes"/>
      <point x="119" y="700" type="line"/>
      <point x="25" y="700" type="line"/>
    </contour>
  </outline>
</glyph>
<glyph name="asciicircum" format="2">
  <advance width="600"/>
  <unicode hex="005E"/>
  <outline>
    <contour>
      <point x="102" y="474" type="line"/>
      <point x="203" y="474" type="line"/>
      <point x="301" y="639" type="line"/>
      <point x="305" y="639" type="line"/>
      <point x="400" y="474" type="line"/>
      <point x="498" y="474" type="line"/>
      <point x="341" y="713" type="line"/>
      <point x="266" y="713" type="line"/>
    </contour>
  </outline>
</glyph>
<glyph name="a" format="2">
  <advance width="528"/>
  <unicode hex="0061"/>
  <anchor x="252" y="0" name="bottom"/>
  <anchor x="383" y="0" name="ogonek"/>
  <anchor x="256" y="490" name="top"/>
  <outline>
    <contour>
      <point x="213" y="-13" type="curve" smooth="yes"/>
      <point x="314" y="-13"/>
      <point x="357" y="38"/>
      <point x="379" y="74" type="curve"/>
      <point x="385" y="74" type="line"/>
      <point x="385" y="0" type="line"/>
      <point x="461" y="0" type="line"/>
      <point x="461" y="321" type="line" smooth="yes"/>
      <point x="461" y="440"/>
      <point x="357" y="503"/>
      <point x="260" y="503" type="curve" smooth="yes"/>
      <point x="167" y="503"/>
      <point x="108" y="475"/>
      <point x="50" y="413" type="curve"/>
      <point x="104" y="357" type="line"/>
      <point x="147" y="405"/>
      <point x="194" y="429"/>
      <point x="256" y="429" type="curve" smooth="yes"/>
      <point x="319" y="429"/>
      <point x="381" y="395"/>
      <point x="381" y="323" type="curve" smooth="yes"/>
      <point x="381" y="281" type="line"/>
      <point x="394" y="292" type="line"/>
      <point x="282" y="285" type="line" smooth="yes"/>
      <point x="133" y="276"/>
      <point x="47" y="227"/>
      <point x="47" y="129" type="curve" smooth="yes"/>
      <point x="47" y="48"/>
      <point x="118" y="-13"/>
    </contour>
    <contour>
      <point x="227" y="55" type="curve" smooth="yes"/>
      <point x="161" y="55"/>
      <point x="127" y="82"/>
      <point x="127" y="133" type="curve" smooth="yes"/>
      <point x="127" y="187"/>
      <point x="180" y="212"/>
      <point x="288" y="219" type="curve" smooth="yes"/>
      <point x="392" y="226" type="line"/>
      <point x="381" y="241" type="line"/>
      <point x="381" y="203" type="line" smooth="yes"/>
      <point x="381" y="124"/>
      <point x="324" y="55"/>
    </contour>
  </outline>
</glyph>
<glyph name="h" format="2">
  <advance width="559"/>
  <unicode hex="0068"/>
  <anchor x="112" y="586" name="bar"/>
  <anchor x="290" y="0" name="bottom"/>
  <anchor x="412" y="0" name="ogonek"/>
  <anchor x="112" y="740" name="top"/>
  <outline>
    <contour>
      <point x="72" y="0" type="line"/>
      <point x="152" y="0" type="line"/>
      <point x="152" y="296" type="line" smooth="yes"/>
      <point x="152" y="378"/>
      <point x="208" y="429"/>
      <point x="296" y="429" type="curve" smooth="yes"/>
      <point x="369" y="429"/>
      <point x="412" y="378"/>
      <point x="412" y="296" type="curve" smooth="yes"/>
      <point x="412" y="0" type="line"/>
      <point x="492" y="0" type="line"/>
      <point x="492" y="314" type="line" smooth="yes"/>
      <point x="492" y="431"/>
      <point x="418" y="503"/>
      <point x="308" y="503" type="curve" smooth="yes"/>
      <point x="230" y="503"/>
      <point x="185" y="463"/>
      <point x="158" y="416" type="curve"/>
      <point x="152" y="416" type="line"/>
      <point x="152" y="740" type="line"/>
      <point x="72" y="740" type="line"/>
    </contour>
  </outline>
</glyph>
<glyph name="t" format="2">
  <advance width="389"/>
  <unicode hex="0074"/>
  <anchor x="181" y="331" name="bar"/>
  <anchor x="248" y="0" name="bottom"/>
  <anchor x="175" y="276" name="center"/>
  <anchor x="175" y="615" name="top"/>
  <anchor x="303" y="740" name="topright"/>
  <outline>
    <contour>
      <point x="283" y="-13" type="curve" smooth="yes"/>
      <point x="313" y="-14"/>
      <point x="333" y="-11"/>
      <point x="372" y="-3" type="curve"/>
      <point x="372" y="68" type="line"/>
      <point x="345" y="61"/>
      <point x="321" y="60"/>
      <point x="301" y="60" type="curve" smooth="yes"/>
      <point x="240" y="60"/>
      <point x="212" y="89"/>
      <point x="212" y="146" type="curve" smooth="yes"/>
      <point x="212" y="622" type="line"/>
      <point x="132" y="608" type="line"/>
      <point x="132" y="141" type="line" smooth="yes"/>
      <point x="132" y="43"/>
      <point x="186" y="-10"/>
    </contour>
    <contour>
      <point x="17" y="418" type="line"/>
      <point x="372" y="418" type="line"/>
      <point x="372" y="490" type="line"/>
      <point x="17" y="490" type="line"/>
    </contour>
  </outline>
</glyph>
<glyph name="brokenbar" format="2">
  <advance width="234"/>
  <unicode hex="00A6"/>
  <outline>
    <contour>
      <point x="87" y="375" type="line"/>
      <point x="147" y="375" type="line"/>
      <point x="147" y="900" type="line"/>
      <point x="87" y="900" type="line"/>
      <point x="87" y="535" type="line"/>
    </contour>
    <contour>
      <point x="147" y="305" type="line"/>
      <point x="87" y="305" type="line"/>
      <point x="87" y="3" type="line"/>
      <point x="87" y="-220" type="line"/>
      <point x="147" y="-220" type="line"/>
    </contour>
  </outline>
</glyph>
<glyph name="degree" format="2">
  <advance width="431"/>
  <unicode hex="00B0"/>
  <outline>
    <contour>
      <point x="215" y="387" type="curve" smooth="yes"/>
      <point x="307" y="387"/>
      <point x="376" y="458"/>
      <point x="376" y="546" type="curve" smooth="yes"/>
      <point x="376" y="634"/>
      <point x="308" y="709"/>
      <point x="215" y="709" type="curve" smooth="yes"/>
      <point x="122" y="709"/>
      <point x="55" y="636"/>
      <point x="55" y="546" type="curve" smooth="yes"/>
      <point x="55" y="458"/>
      <point x="122" y="387"/>
    </contour>
    <contour>
      <point x="215" y="435" type="curve" smooth="yes"/>
      <point x="154" y="435"/>
      <point x="110" y="484"/>
      <point x="110" y="545" type="curve" smooth="yes"/>
      <point x="110" y="611"/>
      <point x="154" y="661"/>
      <point x="215" y="661" type="curve" smooth="yes"/>
      <point x="276" y="661"/>
      <point x="319" y="611"/>
      <point x="319" y="545" type="curve" smooth="yes"/>
      <point x="321" y="483"/>
      <point x="277" y="435"/>
    </contour>
  </outline>
</glyph>
<glyph name="Hbar" format="2">
  <advance width="721"/>
  <unicode hex="0126"/>
  <anchor x="365" y="0" name="bottom"/>
  <anchor x="557" y="0" name="ogonek"/>
  <anchor x="365" y="700" name="top"/>
  <outline>
    <contour>
      <point x="14" y="526" type="line"/>
      <point x="707" y="526" type="line"/>
      <point x="707" y="596" type="line"/>
      <point x="14" y="596" type="line"/>
    </contour>
    <component base="H"/>
  </outline>
</glyph>
<glyph name="lslash" format="2">
  <advance width="224"/>
  <unicode hex="0142"/>
  <anchor x="112" y="0" name="bottom"/>
  <anchor x="112" y="393" name="center"/>
  <anchor x="152" y="0" name="ogonek"/>
  <anchor x="112" y="740" name="top"/>
  <anchor x="202" y="740" name="topright"/>
  <outline>
    <contour>
      <point x="0" y="273" type="line"/>
      <point x="106" y="343" type="line"/>
      <point x="116" y="343" type="line"/>
      <point x="224" y="414" type="line"/>
      <point x="224" y="490" type="line"/>
      <point x="116" y="419" type="line"/>
      <point x="106" y="419" type="line"/>
      <point x="0" y="349" type="line"/>
    </contour>
    <component base="l"/>
  </outline>
</glyph>
<glyph name="eng" format="2">
  <advance width="559"/>
  <unicode hex="014B"/>
  <outline>
    <contour>
      <point x="72" y="0" type="line"/>
      <point x="152" y="0" type="line"/>
      <point x="152" y="296" type="line" smooth="yes"/>
      <point x="152" y="378"/>
      <point x="207" y="429"/>
      <point x="294" y="429" type="curve" smooth="yes"/>
      <point x="366" y="429"/>
      <point x="412" y="378"/>
      <point x="412" y="296" type="curve" smooth="yes"/>
      <point x="412" y="-81" type="line" smooth="yes"/>
      <point x="412" y="-142"/>
      <point x="381" y="-162"/>
      <point x="339" y="-162" type="curve" smooth="yes"/>
      <point x="323" y="-162"/>
      <point x="312" y="-160"/>
      <point x="293" y="-154" type="curve"/>
      <point x="280" y="-224" type="line"/>
      <point x="304" y="-230"/>
      <point x="325" y="-233"/>
      <point x="347" y="-233" type="curve" smooth="yes"/>
      <point x="432" y="-233"/>
      <point x="492" y="-187"/>
      <point x="492" y="-84" type="curve" smooth="yes"/>
      <point x="492" y="314" type="line" smooth="yes"/>
      <point x="492" y="431"/>
      <point x="416" y="503"/>
      <point x="306" y="503" type="curve" smooth="yes"/>
      <point x="225" y="503"/>
      <point x="181" y="463"/>
      <point x="154" y="416" type="curve"/>
      <point x="148" y="416" type="line"/>
      <point x="148" y="490" type="line"/>
      <point x="72" y="490" type="line"/>
    </contour>
  </outline>
</glyph>
<glyph name="oe" format="2">
  <advance width="963"/>
  <unicode hex="0153"/>
  <anchor x="492" y="0" name="bottom"/>
  <anchor x="492" y="490" name="top"/>
  <outline>
    <contour>
      <point x="284" y="-13" type="curve" smooth="yes"/>
      <point x="429" y="-13"/>
      <point x="530" y="95"/>
      <point x="530" y="246" type="curve" smooth="yes"/>
      <point x="530" y="396"/>
      <point x="429" y="503"/>
      <point x="284" y="503" type="curve" smooth="yes"/>
      <point x="140" y="503"/>
      <point x="36" y="395"/>
      <point x="36" y="244" type="curve" smooth="yes"/>
      <point x="36" y="94"/>
      <point x="140" y="-13"/>
    </contour>
    <contour>
      <point x="284" y="61" type="curve" smooth="yes"/>
      <point x="181" y="61"/>
      <point x="116" y="141"/>
      <point x="116" y="245" type="curve" smooth="yes"/>
      <point x="116" y="351"/>
      <point x="181" y="429"/>
      <point x="284" y="429" type="curve" smooth="yes"/>
      <point x="387" y="429"/>
      <point x="453" y="349"/>
      <point x="453" y="245" type="curve" smooth="yes"/>
      <point x="453" y="139"/>
      <point x="387" y="61"/>
    </contour>
    <contour>
      <point x="700" y="-13" type="curve" smooth="yes"/>
      <point x="788" y="-13"/>
      <point x="861" y="19"/>
      <point x="907" y="80" type="curve"/>
      <point x="850" y="129" type="line"/>
      <point x="815" y="81"/>
      <point x="769" y="61"/>
      <point x="701" y="61" type="curve" smooth="yes"/>
      <point x="607" y="61"/>
      <point x="532" y="129"/>
      <point x="530" y="233" type="curve"/>
      <point x="530" y="245" type="line"/>
      <point x="529" y="362"/>
      <point x="596" y="429"/>
      <point x="697" y="429" type="curve" smooth="yes"/>
      <point x="803" y="429"/>
      <point x="859" y="352"/>
      <point x="855" y="245" type="curve"/>
      <point x="883" y="284" type="line"/>
      <point x="489" y="284" type="line"/>
      <point x="489" y="214" type="line"/>
      <point x="933" y="214" type="line"/>
      <point x="935" y="223"/>
      <point x="935" y="236"/>
      <point x="935" y="246" type="curve" smooth="yes"/>
      <point x="935" y="397"/>
      <point x="846" y="503"/>
      <point x="699" y="503" type="curve" smooth="yes"/>
      <point x="553" y="503"/>
      <point x="453" y="392"/>
      <point x="453" y="246" type="curve" smooth="yes"/>
      <point x="453" y="96"/>
      <point x="551" y="-13"/>
    </contour>
    <contour>
      <point x="475" y="395" type="line"/>
      <point x="475" y="95" type="line"/>
      <point x="508" y="95" type="line"/>
      <point x="508" y="395" type="line"/>
    </contour>
  </outline>
</glyph>
<glyph name="strokeshortcomb" format="2">
  <unicode hex="0335"/>
  <anchor x="0" y="351" name="_bar"/>
  <outline>
    <contour>
      <point x="-150" y="314" type="line"/>
      <point x="150" y="314" type="line"/>
      <point x="150" y="386" type="line"/>
      <point x="-150" y="386" type="line"/>
    </contour>
  </outline>
</glyph>
<glyph name="Germandbls" format="2">
  <advance width="684"/>
  <unicode hex="1E9E"/>
  <outline>
    <contour>
      <point x="408" y="-13" type="curve" smooth="yes"/>
      <point x="567" y="-13"/>
      <point x="658" y="71"/>
      <point x="658" y="206" type="curve" smooth="yes"/>
      <point x="658" y="315"/>
      <point x="587" y="411"/>
      <point x="451" y="420" type="curve"/>
      <point x="451" y="422" type="line"/>
      <point x="602" y="696" type="line"/>
      <point x="602" y="700" type="line"/>
      <point x="82" y="700" type="line"/>
      <point x="82" y="0" type="line"/>
      <point x="164" y="0" type="line"/>
      <point x="164" y="624" type="line"/>
      <point x="472" y="624" type="line"/>
      <point x="472" y="621" type="line"/>
      <point x="464" y="611"/>
      <point x="456" y="600"/>
      <point x="446" y="580" type="curve" smooth="yes"/>
      <point x="328" y="370" type="line"/>
      <point x="328" y="357" type="line"/>
      <point x="487" y="384"/>
      <point x="574" y="307"/>
      <point x="574" y="204" type="curve" smooth="yes"/>
      <point x="574" y="116"/>
      <point x="519" y="63"/>
      <point x="411" y="63" type="curve" smooth="yes"/>
      <point x="377" y="63"/>
      <point x="354" y="66"/>
      <point x="320" y="78" type="curve"/>
      <point x="320" y="3" type="line"/>
      <point x="343" y="-9"/>
      <point x="377" y="-13"/>
    </contour>
  </outline>
</glyph>
<glyph name="dagger" format="2">
  <advance width="360"/>
  <unicode hex="2020"/>
  <outline>
    <contour>
      <point x="145" y="301" type="line"/>
      <point x="215" y="301" type="line"/>
      <point x="215" y="753" type="line"/>
      <point x="145" y="753" type="line"/>
    </contour>
    <contour>
      <point x="40" y="582" type="line"/>
      <point x="320" y="582" type="line"/>
      <point x="320" y="647" type="line"/>
      <point x="40" y="647" type="line"/>
    </contour>
  </outline>
</glyph>
<glyph name="interrobang" format="2">
  <advance width="513"/>
  <unicode hex="203D"/>
  <outline>
    <contour>
      <point x="215" y="143" type="line"/>
      <point x="272" y="143" type="line"/>
      <point x="280" y="331" type="line"/>
      <point x="256" y="282" type="line"/>
      <point x="306" y="324" type="line"/>
      <point x="277" y="357" type="line"/>
      <point x="281" y="368"/>
      <point x="283" y="375"/>
      <point x="283" y="387" type="curve" smooth="yes"/>
      <point x="289" y="579" type="line"/>
      <point x="199" y="579" type="line"/>
    </contour>
    <contour>
      <point x="249" y="302" type="line"/>
      <point x="391" y="302"/>
      <point x="471" y="387"/>
      <point x="471" y="506" type="curve" smooth="yes"/>
      <point x="471" y="624"/>
      <point x="391" y="713"/>
      <point x="256" y="713" type="curve" smooth="yes"/>
      <point x="125" y="713"/>
      <point x="31" y="632"/>
      <point x="31" y="500" type="curve"/>
      <point x="119" y="500" type="line"/>
      <point x="119" y="584"/>
      <point x="172" y="636"/>
      <point x="256" y="636" type="curve" smooth="yes"/>
      <point x="334" y="636"/>
      <point x="383" y="580"/>
      <point x="383" y="490" type="curve" smooth="yes"/>
      <point x="383" y="410"/>
      <point x="331" y="359"/>
      <point x="249" y="359" type="curve"/>
    </contour>
    <component base="period" xOffset="135"/>
  </outline>
</glyph>
<glyph name="naira" format="2">
  <advance width="725"/>
  <unicode hex="20A6"/>
  <anchor x="369.2495" y="30.0" name="bottom"/>
  <anchor x="635.8342" y="30.0" name="ogonek"/>
  <anchor x="360.7112" y="669.94" name="top"/>
  <outline>
    <contour>
      <point x="0" y="324" type="line"/>
      <point x="725" y="324" type="line"/>
      <point x="725" y="396" type="line"/>
      <point x="0" y="396" type="line"/>
    </contour>
    <component base="N" xScale="0.9487" yScale="0.9142" xOffset="4" yOffset="30"/>
  </outline>
</glyph>
<glyph name="Ohm" format="2">
  <advance width="786"/>
  <unicode hex="2126"/>
  <outline>
    <contour>
      <point x="22" y="0" type="line"/>
      <point x="319" y="0" type="line"/>
      <point x="319" y="57" type="line"/>
      <point x="232" y="79"/>
      <point x="128" y="179"/>
      <point x="128" y="349" type="curve" smooth="yes"/>
      <point x="128" y="520"/>
      <point x="234" y="637"/>
      <point x="392" y="637" type="curve" smooth="yes"/>
      <point x="551" y="637"/>
      <point x="656" y="521"/>
      <point x="656" y="350" type="curve" smooth="yes"/>
      <point x="656" y="181"/>
      <point x="554" y="80"/>
      <point x="467" y="57" type="curve"/>
      <point x="467" y="0" type="line"/>
      <point x="764" y="0" type="line"/>
      <point x="764" y="76" type="line"/>
      <point x="627" y="76" type="line"/>
      <point x="627" y="79" type="line"/>
      <point x="684" y="119"/>
      <point x="740" y="252"/>
      <point x="740" y="350" type="curve" smooth="yes"/>
      <point x="740" y="552"/>
      <point x="598" y="713"/>
      <point x="392" y="713" type="curve" smooth="yes"/>
      <point x="186" y="713"/>
      <point x="44" y="550"/>
      <point x="44" y="349" type="curve" smooth="yes"/>
      <point x="44" y="243"/>
      <point x="98" y="119"/>
      <point x="156" y="79" type="curve"/>
      <point x="156" y="76" type="line"/>
      <point x="22" y="76" type="line"/>
    </contour>
  </outline>
</glyph>
<glyph name="estimated" format="2">
  <advance width="904"/>
  <unicode hex="212E"/>
  <outline>
    <contour>
      <point x="452" y="-3" type="curve" smooth="yes"/>
      <point x="577" y="-3"/>
      <point x="692" y="52"/>
      <point x="762" y="134" type="curve"/>
      <point x="705" y="134" type="line"/>
      <point x="645" y="64"/>
      <point x="554" y="18"/>
      <point x="453" y="18" type="curve" smooth="yes"/>
      <point x="359" y="18"/>
      <point x="267" y="53"/>
      <point x="212" y="122" type="curve" smooth="yes"/>
      <point x="208" y="128"/>
      <point x="203" y="135"/>
      <point x="203" y="145" type="curve" smooth="yes"/>
      <point x="203" y="337" type="line" smooth="yes"/>
      <point x="203" y="340"/>
      <point x="205" y="341"/>
      <point x="209" y="341" type="curve" smooth="yes"/>
      <point x="844" y="341" type="line"/>
      <point x="844" y="349" type="line" smooth="yes"/>
      <point x="844" y="545"/>
      <point x="669" y="703"/>
      <point x="452" y="703" type="curve" smooth="yes"/>
      <point x="236" y="703"/>
      <point x="60" y="545"/>
      <point x="60" y="349" type="curve" smooth="yes"/>
      <point x="60" y="155"/>
      <point x="236" y="-3"/>
    </contour>
    <contour>
      <point x="209" y="360" type="line" smooth="yes"/>
      <point x="205" y="360"/>
      <point x="203" y="362"/>
      <point x="203" y="366" type="curve" smooth="yes"/>
      <point x="203" y="555" type="line" smooth="yes"/>
      <point x="203" y="565"/>
      <point x="208" y="573"/>
      <point x="213" y="579" type="curve" smooth="yes"/>
      <point x="275" y="641"/>
      <point x="359" y="682"/>
      <point x="453" y="682" type="curve" smooth="yes"/>
      <point x="546" y="682"/>
      <point x="630" y="643"/>
      <point x="691" y="582" type="curve" smooth="yes"/>
      <point x="697" y="577"/>
      <point x="702" y="568"/>
      <point x="702" y="559" type="curve" smooth="yes"/>
      <point x="702" y="366" type="line" smooth="yes"/>
      <point x="702" y="362"/>
      <point x="699" y="360"/>
      <point x="696" y="360" type="curve" smooth="yes"/>
    </contour>
  </outline>
</glyph>
<glyph name="infinity" format="2">
  <advance width="757"/>
  <unicode hex="221E"/>
  <outline>
    <contour>
      <point x="209" y="102" type="curve" smooth="yes"/>
      <point x="291" y="102"/>
      <point x="361" y="164"/>
      <point x="397" y="253" type="curve"/>
      <point x="351" y="253" type="line"/>
      <point x="383" y="164"/>
      <point x="464" y="102"/>
      <point x="548" y="102" type="curve" smooth="yes"/>
      <point x="656" y="102"/>
      <point x="737" y="181"/>
      <point x="737" y="287" type="curve" smooth="yes"/>
      <point x="737" y="392"/>
      <point x="656" y="472"/>
      <point x="548" y="472" type="curve" smooth="yes"/>
      <point x="464" y="472"/>
      <point x="383" y="409"/>
      <point x="349" y="321" type="curve"/>
      <point x="395" y="321" type="line"/>
      <point x="361" y="409"/>
      <point x="291" y="472"/>
      <point x="209" y="472" type="curve" smooth="yes"/>
      <point x="101" y="472"/>
      <point x="20" y="392"/>
      <point x="20" y="287" type="curve" smooth="yes"/>
      <point x="20" y="181"/>
      <point x="101" y="102"/>
    </contour>
    <contour>
      <point x="206" y="180" type="curve" smooth="yes"/>
      <point x="151" y="180"/>
      <point x="96" y="222"/>
      <point x="96" y="287" type="curve" smooth="yes"/>
      <point x="96" y="352"/>
      <point x="151" y="394"/>
      <point x="206" y="394" type="curve" smooth="yes"/>
      <point x="277" y="394"/>
      <point x="325" y="330"/>
      <point x="356" y="236" type="curve"/>
      <point x="356" y="338" type="line"/>
      <point x="325" y="244"/>
      <point x="277" y="180"/>
    </contour>
    <contour>
      <point x="554" y="180" type="curve" smooth="yes"/>
      <point x="483" y="180"/>
      <point x="419" y="244"/>
      <point x="388" y="338" type="curve"/>
      <point x="388" y="236" type="line"/>
      <point x="419" y="330"/>
      <point x="483" y="394"/>
      <point x="554" y="394" type="curve" smooth="yes"/>
      <point x="608" y="394"/>
      <point x="665" y="352"/>
      <point x="665" y="287" type="curve" smooth="yes"/>
      <point x="665" y="222"/>
      <point x="608" y="180"/>
    </contour>
  </outline>
</glyph>
<glyph name="whiteDiamond" format="2">
  <advance width="786"/>
  <unicode hex="25C7"/>
  <outline>
    <contour>
      <point x="393" y="0" type="line"/>
      <point x="756" y="363" type="line"/>
      <point x="393" y="726" type="line"/>
      <point x="30" y="363" type="line"/>
    </contour>
    <contour>
      <point x="393" y="102" type="line"/>
      <point x="131" y="363" type="line"/>
      <point x="393" y="624" type="line"/>
      <point x="654" y="363" type="line"/>
    </contour>
  </outline>
</glyph>
<glyph name="whiteBullet" format="2">
  <advance width="290"/>
  <unicode hex="25E6"/>
  <outline>
    <contour>
      <point x="145" y="277" type="curve" smooth="yes"/>
      <point x="197" y="277"/>
      <point x="230" y="315"/>
      <point x="230" y="360" type="curve" smooth="yes"/>
      <point x="230" y="406"/>
      <point x="197" y="444"/>
      <point x="145" y="444" type="curve" smooth="yes"/>
      <point x="93" y="444"/>
      <point x="60" y="406"/>
      <point x="60" y="361" type="curve" smooth="yes"/>
      <point x="60" y="315"/>
      <point x="93" y="277"/>
    </contour>
    <contour>
      <point x="145" y="320" type="curve" smooth="yes"/>
      <point x="122" y="320"/>
      <point x="104" y="337"/>
      <point x="104" y="361" type="curve" smooth="yes"/>
      <point x="104" y="382"/>
      <point x="121" y="401"/>
      <point x="145" y="401" type="curve" smooth="yes"/>
      <point x="168" y="401"/>
      <point x="186" y="384"/>
      <point x="186" y="360" type="curve" smooth="yes"/>
      <point x="186" y="339"/>
      <point x="169" y="320"/>
    </contour>
  </outline>
</glyph>
<glyph name="G.ss02" format="2">
  <advance width="774"/>
  <anchor x="396" y="0" name="bottom"/>
  <anchor x="523" y="9" name="ogonek"/>
  <anchor x="396" y="700" name="top"/>
  <outline>
    <contour>
      <point x="396" y="-13" type="curve" smooth="yes"/>
      <point x="595" y="-13"/>
      <point x="733" y="126"/>
      <point x="733" y="321" type="curve" smooth="yes"/>
      <point x="733" y="338"/>
      <point x="732" y="355"/>
      <point x="730" y="367" type="curve"/>
      <point x="363" y="367" type="line"/>
      <point x="363" y="293" type="line"/>
      <point x="683" y="294" type="line"/>
      <point x="650" y="318" type="line"/>
      <point x="648" y="167"/>
      <point x="549" y="63"/>
      <point x="397" y="63" type="curve" smooth="yes"/>
      <point x="239" y="63"/>
      <point x="128" y="187"/>
      <point x="128" y="349" type="curve" smooth="yes"/>
      <point x="128" y="511"/>
      <point x="230" y="637"/>
      <point x="397" y="637" type="curve" smooth="yes"/>
      <point x="480" y="637"/>
      <point x="549" y="608"/>
      <point x="594" y="550" type="curve"/>
      <point x="655" y="603" type="line"/>
      <point x="588" y="680"/>
      <point x="510" y="713"/>
      <point x="396" y="713" type="curve" smooth="yes"/>
      <point x="187" y="713"/>
      <point x="41" y="555"/>
      <point x="41" y="349" type="curve" smooth="yes"/>
      <point x="41" y="144"/>
      <point x="191" y="-13"/>
    </contour>
  </outline>
</glyph>
<glyph name="caroncomb.alt" format="2">
  <anchor x="37" y="740" name="_topright"/>
  <outline>
    <contour>
      <point x="11" y="516" type="line"/>
      <point x="68" y="516" type="line"/>
      <point x="155" y="740" type="line"/>
      <point x="61" y="740" type="line"/>
    </contour>
  </outline>
</glyph>
<glyph name="f_l.ss11" format="2">
  <advance width="604"/>
  <anchor x="369" y="0" name="caret_1"/>
  <outline>
    <contour>
      <point x="117" y="0" type="line"/>
      <point x="197" y="0" type="line"/>
      <point x="197" y="546" type="line" smooth="yes"/>
      <point x="197" y="628"/>
      <point x="244" y="679"/>
      <point x="325" y="679" type="curve" smooth="yes"/>
      <point x="401" y="679"/>
      <point x="452" y="628"/>
      <point x="452" y="546" type="curve" smooth="yes"/>
      <point x="452" y="0" type="line"/>
      <point x="532" y="0" type="line"/>
      <point x="532" y="550" type="line" smooth="yes"/>
      <point x="532" y="666"/>
      <point x="441" y="753"/>
      <point x="325" y="753" type="curve" smooth="yes"/>
      <point x="204" y="753"/>
      <point x="117" y="666"/>
      <point x="117" y="550" type="curve" smooth="yes"/>
    </contour>
    <contour>
      <point x="17" y="418" type="line"/>
      <point x="370" y="418" type="line"/>
      <point x="370" y="490" type="line"/>
      <point x="17" y="490" type="line"/>
    </contour>
  </outline>
</glyph>
<glyph name="guarani.tf.ss02" format="2">
  <advance width="596"/>
  <outline>
    <contour>
      <point x="307" y="21" type="curve" smooth="yes"/>
      <point x="476" y="21"/>
      <point x="587" y="149"/>
      <point x="587" y="328" type="curve" smooth="yes"/>
      <point x="587" y="344"/>
      <point x="586" y="360"/>
      <point x="584" y="371" type="curve"/>
      <point x="275" y="371" type="line"/>
      <point x="275" y="307" type="line"/>
      <point x="539" y="307" type="line"/>
      <point x="508" y="326" type="line"/>
      <point x="506" y="187"/>
      <point x="432" y="91"/>
      <point x="308" y="91" type="curve" smooth="yes"/>
      <point x="188" y="91"/>
      <point x="92" y="205"/>
      <point x="92" y="354" type="curve" smooth="yes"/>
      <point x="92" y="503"/>
      <point x="179" y="619"/>
      <point x="308" y="619" type="curve" smooth="yes"/>
      <point x="381" y="619"/>
      <point x="427" y="595"/>
      <point x="467" y="539" type="curve"/>
      <point x="527" y="585" type="line"/>
      <point x="467" y="660"/>
      <point x="410" y="689"/>
      <point x="307" y="689" type="curve" smooth="yes"/>
      <point x="138" y="689"/>
      <point x="10" y="544"/>
      <point x="10" y="354" type="curve" smooth="yes"/>
      <point x="10" y="165"/>
      <point x="142" y="21"/>
    </contour>
    <contour>
      <point x="282" y="653" type="line"/>
      <point x="352" y="653" type="line"/>
      <point x="352" y="775" type="line"/>
      <point x="282" y="775" type="line"/>
    </contour>
    <contour>
      <point x="282" y="-69" type="line"/>
      <point x="352" y="-69" type="line"/>
      <point x="352" y="53" type="line"/>
      <point x="282" y="53" type="line"/>
    </contour>
  </outline>
</glyph>
<glyph name="hookabovecomb.case" format="2">
  <anchor x="0" y="700" name="_top"/>
  <anchor x="0" y="872" name="top"/>
  <outline>
    <contour>
      <point x="-34" y="735" type="curve"/>
      <point x="35" y="735" type="line"/>
      <point x="46" y="743"/>
      <point x="67" y="767"/>
      <point x="67" y="800" type="curve" smooth="yes"/>
      <point x="67" y="853"/>
      <point x="27" y="892"/>
      <point x="-35" y="892" type="curve" smooth="yes"/>
      <point x="-75" y="892"/>
      <point x="-99" y="876"/>
      <point x="-112" y="867" type="curve"/>
      <point x="-81" y="822" type="line"/>
      <point x="-72" y="831"/>
      <point x="-56" y="837"/>
      <point x="-38" y="837" type="curve" smooth="yes"/>
      <point x="-11" y="837"/>
      <point x="8" y="822"/>
      <point x="8" y="795" type="curve" smooth="yes"/>
      <point x="8" y="775"/>
      <point x="-5" y="755"/>
    </contour>
  </outline>
</glyph>
<glyph name="one.ss10" format="2">
  <advance width="268"/>
  <outline>
    <contour>
      <point x="99" y="0" type="line"/>
      <point x="184" y="0" type="line"/>
      <point x="184" y="699" type="line"/>
      <point x="6" y="700" type="line"/>
      <point x="6" y="624" type="line"/>
      <point x="99" y="624" type="line"/>
      <point x="99" y="620" type="line"/>
    </contour>
  </outline>
</glyph>
<glyph name="rupee.tf" format="2">
  <advance width="596"/>
  <outline>
    <contour>
      <point x="431" y="17" type="curve" smooth="yes"/>
      <point x="507" y="17"/>
      <point x="567" y="72"/>
      <point x="567" y="148" type="curve" smooth="yes"/>
      <point x="567" y="287"/>
      <point x="414" y="273"/>
      <point x="414" y="357" type="curve" smooth="yes"/>
      <point x="414" y="385"/>
      <point x="433" y="405"/>
      <point x="460" y="405" type="curve" smooth="yes"/>
      <point x="482" y="405"/>
      <point x="498" y="387"/>
      <point x="507" y="358" type="curve"/>
      <point x="573" y="394" type="line"/>
      <point x="543" y="460"/>
      <point x="503" y="473"/>
      <point x="455" y="473" type="curve" smooth="yes"/>
      <point x="388" y="473"/>
      <point x="340" y="427"/>
      <point x="340" y="350" type="curve" smooth="yes"/>
      <point x="340" y="225"/>
      <point x="493" y="238"/>
      <point x="493" y="141" type="curve" smooth="yes"/>
      <point x="493" y="105"/>
      <point x="465" y="86"/>
      <point x="431" y="86" type="curve" smooth="yes"/>
      <point x="396" y="86"/>
      <point x="367" y="110"/>
      <point x="330" y="152" type="curve" smooth="yes"/>
      <point x="175" y="330" type="line"/>
      <point x="141" y="298" type="line"/>
      <point x="234" y="299"/>
      <point x="322" y="347"/>
      <point x="322" y="483" type="curve" smooth="yes"/>
      <point x="322" y="621"/>
      <point x="234" y="670"/>
      <point x="137" y="670" type="curve" smooth="yes"/>
      <point x="23" y="670" type="line"/>
      <point x="23" y="30" type="line"/>
      <point x="98" y="30" type="line"/>
      <point x="98" y="297" type="line"/>
      <point x="115" y="297" type="line"/>
      <point x="128" y="270"/>
      <point x="142" y="248"/>
      <point x="162" y="227" type="curve" smooth="yes"/>
      <point x="262" y="119" type="line" smooth="yes"/>
      <point x="331" y="44"/>
      <point x="368" y="17"/>
    </contour>
    <contour>
      <point x="98" y="369" type="line"/>
      <point x="98" y="598" type="line"/>
      <point x="137" y="598" type="line" smooth="yes"/>
      <point x="201" y="598"/>
      <point x="243" y="578"/>
      <point x="243" y="483" type="curve" smooth="yes"/>
      <point x="243" y="391"/>
      <point x="201" y="369"/>
      <point x="137" y="369" type="curve" smooth="yes"/>
    </contour>
  </outline>
</glyph>
<glyph name="tittle" format="2">
  <advance width="223"/>
  <outline>
    <contour>
      <point x="112" y="613" type="curve" smooth="yes"/>
      <point x="142" y="613"/>
      <point x="164" y="636"/>
      <point x="164" y="665" type="curve" smooth="yes"/>
      <point x="164" y="693"/>
      <point x="142" y="716"/>
      <point x="112" y="716" type="curve" smooth="yes"/>
      <point x="81" y="716"/>
      <point x="59" y="693"/>
      <point x="59" y="665" type="curve" smooth="yes"/>
      <point x="59" y="636"/>
      <point x="81" y="613"/>
    </contour>
  </outline>
</glyph>
<glyph name="verticalBottomCurrencycomb" format="2">
  <advance width="300"/>
  <anchor x="0" y="53" name="_verticalBottomCurrency"/>
  <outline>
    <contour>
      <point x="-35" y="-69" type="line"/>
      <point x="35" y="-69" type="line"/>
      <point x="35" y="53" type="line"/>
      <point x="-35" y="53" type="line"/>
    </contour>
  </outline>
</glyph>
<glyph name="verticalTopCurrencycomb" format="2">
  <advance width="300"/>
  <anchor x="0" y="653" name="_TopCurrency"/>
  <outline>
    <contour>
      <point x="-35" y="653" type="line"/>
      <point x="35" y="653" type="line"/>
      <point x="35" y="775" type="line"/>
      <point x="-35" y="775" type="line"/>
    </contour>
  </outline>
</glyph>
<glyph name="zero.zero" format="2">
  <advance width="594"/>
  <outline>
    <contour>
      <point x="115" y="106" type="line"/>
      <point x="175" y="70" type="line"/>
      <point x="462" y="606" type="line"/>
      <point x="400" y="642" type="line"/>
    </contour>
    <component base="zero"/>
  </outline>
</glyph>
